<?xml version="1.0" encoding="UTF-8"?>
<svg id="Layer_2" data-name="Layer 2" xmlns="http://www.w3.org/2000/svg" xmlns:xlink="http://www.w3.org/1999/xlink" viewBox="0 0 99 80">
  <defs>
    <style>
      .cls-1, .cls-2, .cls-3, .cls-4, .cls-5, .cls-6 {
        fill: #fff;
      }

      .cls-2 {
        filter: url(#drop-shadow-3);
      }

      .cls-3 {
        filter: url(#drop-shadow-4);
      }

      .cls-4 {
        filter: url(#drop-shadow-5);
      }

      .cls-7 {
        filter: url(#outer-glow-1);
      }

      .cls-5 {
        filter: url(#drop-shadow-2);
      }

      .cls-6 {
        filter: url(#drop-shadow-6);
      }

      .cls-8 {
        stroke-miterlimit: 10;
        stroke-width: 2px;
      }

      .cls-8, .cls-9 {
        fill: none;
        stroke: #fff;
      }

      .cls-9 {
        stroke-linecap: round;
        stroke-linejoin: round;
      }
    </style>
    <filter id="outer-glow-1" x="0" y="0" width="99" height="80" filterUnits="userSpaceOnUse">
      <feOffset dx="0" dy="0"/>
      <feGaussianBlur result="blur" stdDeviation="2"/>
      <feFlood flood-color="#fff" flood-opacity=".06"/>
      <feComposite in2="blur" operator="in"/>
      <feComposite in="SourceGraphic"/>
    </filter>
    <filter id="drop-shadow-2" x="18" y="0" width="62" height="65" filterUnits="userSpaceOnUse">
      <feOffset dx="5" dy="5"/>
      <feGaussianBlur result="blur-2" stdDeviation="10"/>
      <feFlood flood-color="#fff" flood-opacity=".4"/>
      <feComposite in2="blur-2" operator="in"/>
      <feComposite in="SourceGraphic"/>
    </filter>
    <filter id="drop-shadow-3" x="0" y="18" width="65" height="62" filterUnits="userSpaceOnUse">
      <feOffset dx="5" dy="5"/>
      <feGaussianBlur result="blur-3" stdDeviation="10"/>
      <feFlood flood-color="#fff" flood-opacity=".4"/>
      <feComposite in2="blur-3" operator="in"/>
      <feComposite in="SourceGraphic"/>
    </filter>
    <filter id="drop-shadow-4" x="5" y="5" width="65" height="64" filterUnits="userSpaceOnUse">
      <feOffset dx="5" dy="5"/>
      <feGaussianBlur result="blur-4" stdDeviation="10"/>
      <feFlood flood-color="#fff" flood-opacity=".4"/>
      <feComposite in2="blur-4" operator="in"/>
      <feComposite in="SourceGraphic"/>
    </filter>
    <filter id="drop-shadow-5" x="29" y="5" width="64" height="64" filterUnits="userSpaceOnUse">
      <feOffset dx="5" dy="5"/>
      <feGaussianBlur result="blur-5" stdDeviation="10"/>
      <feFlood flood-color="#fff" flood-opacity=".4"/>
      <feComposite in2="blur-5" operator="in"/>
      <feComposite in="SourceGraphic"/>
    </filter>
    <filter id="drop-shadow-6" x="33" y="18" width="66" height="62" filterUnits="userSpaceOnUse">
      <feOffset dx="5" dy="5"/>
      <feGaussianBlur result="blur-6" stdDeviation="10"/>
      <feFlood flood-color="#fff" flood-opacity=".4"/>
      <feComposite in2="blur-6" operator="in"/>
      <feComposite in="SourceGraphic"/>
    </filter>
  </defs>
  <g id="Layer_1-2" data-name="Layer 1">
    <g class="cls-7">
      <g>
        <rect class="cls-5" x="43.46" y="25.27" width="1.36" height="4.02" rx=".55" ry=".55" transform="translate(88.28 54.57) rotate(180)"/>
        <rect class="cls-2" x="26.86" y="41.7" width="1.35" height="4.05" rx=".55" ry=".55" transform="translate(71.26 16.2) rotate(90)"/>
        <path class="cls-3" d="M33.92,33.66l.18-.18c.21-.21.21-.56,0-.77l-2.09-2.07c-.21-.21-.56-.21-.78,0l-.18.18c-.21.21-.21.56,0,.77l2.09,2.07c.21.21.56.21.78,0Z"/>
        <path class="cls-4" d="M54.37,33.48l.18.18c.21.21.56.21.78,0l2.09-2.07c.21-.21.21-.56,0-.77l-.18-.18c-.21-.21-.56-.21-.78,0l-2.09,2.07c-.21.21-.21.56,0,.77Z"/>
        <rect class="cls-6" x="60.33" y="41.82" width="1.35" height="4.05" rx=".55" ry=".55" transform="translate(104.85 -17.16) rotate(90)"/>
        <g>
          <rect class="cls-1" x="43.42" y="57.24" width="1.34" height="10.73" rx=".54" ry=".54" transform="translate(-18.51 106.7) rotate(-90)"/>
          <rect class="cls-1" x="43.42" y="55.09" width="1.34" height="10.73" rx=".54" ry=".54" transform="translate(-16.37 104.55) rotate(-90)"/>
          <path class="cls-1" d="M48.61,64.76l-.06.18c0,.38-1.94,1.81-2.35,2-.51.24-1.35.26-2.13.26-.67,0-1.27,0-1.82-.16-.38-.11-2.64-1.72-2.64-2.1l-.04-.2c0-.38.37-.67.77-.67h7.49c.4,0,.78.31.78.68Z"/>
          <path class="cls-8" d="M44.09,33.36c-5.71,0-10.33,4.49-10.33,10.03,0,3.25,3.39,7.34,3.42,7.39.22.4,1.02,1.44,1.15,1.96.29,1.22.4,2.37.44,3.24.04.87.76,1.55,1.63,1.55h7.68c.76,0,1.37-.61,1.37-1.36,0-.79.04-1.76.21-2.45.2-.84.99-2.06,1.48-2.94.03-.06,3.3-4.55,3.3-7.4,0-5.54-4.63-10.03-10.33-10.03ZM36.86,50.39s.02,0,.05,0h-.05Z"/>
          <path class="cls-9" d="M37.76,40.76c1.26-3.74,5.12-4.14,5.12-4.14"/>
        </g>
      </g>
    </g>
  </g>
</svg>